<svg width="334" height="113" viewBox="0 0 334 113" fill="none" xmlns="http://www.w3.org/2000/svg">
<path d="M67.6082 99.0039C58.1672 101.534 48.1554 100.877 39.1255 97.1369C30.0956 93.3966 22.5521 86.7812 17.6652 78.3167C12.7782 69.8522 10.8208 60.0117 12.0966 50.3213C13.3724 40.631 17.81 31.6324 24.7212 24.7212C31.6324 17.81 40.631 13.3724 50.3213 12.0966C60.0117 10.8208 69.8522 12.7782 78.3167 17.6652C86.7812 22.5521 93.3966 30.0955 97.1369 39.1255C100.877 48.1554 101.534 58.1672 99.0039 67.6082" stroke="black" stroke-width="23.4333"/>
<path d="M99.0039 79.9415C105.815 79.9415 111.337 74.4197 111.337 67.6082C111.337 60.7967 105.815 55.2748 99.0039 55.2748C92.1924 55.2748 86.6706 60.7967 86.6706 67.6082C86.6706 74.4197 92.1924 79.9415 99.0039 79.9415Z" fill="black"/>
<mask id="path-3-outside-1_2_8" maskUnits="userSpaceOnUse" x="129.717" y="9.71667" width="198" height="102" fill="black">
<rect fill="white" x="129.717" y="9.71667" width="198" height="102"/>
<path d="M137.061 53.8847C137.061 50.0447 137.989 46.6207 139.845 43.6127C141.765 40.5407 144.325 38.1087 147.525 36.3167C150.725 34.5247 154.245 33.6287 158.085 33.6287C161.925 33.6287 164.773 34.2687 166.629 35.5487C168.549 36.7647 169.285 38.2367 168.837 39.9647C168.645 40.8607 168.261 41.5647 167.685 42.0767C167.173 42.5247 166.565 42.8127 165.861 42.9407C165.157 43.0687 164.389 43.0367 163.557 42.8447C159.461 42.0127 155.781 41.9487 152.517 42.6527C149.253 43.3567 146.661 44.6687 144.741 46.5887C142.885 48.5087 141.957 50.9407 141.957 53.8847H137.061ZM137.157 86.7167C135.621 86.7167 134.437 86.3327 133.605 85.5647C132.773 84.7327 132.357 83.5167 132.357 81.9167V39.0047C132.357 37.4687 132.773 36.2847 133.605 35.4527C134.437 34.6207 135.621 34.2047 137.157 34.2047C138.757 34.2047 139.941 34.6207 140.709 35.4527C141.541 36.2207 141.957 37.4047 141.957 39.0047V81.9167C141.957 83.4527 141.541 84.6367 140.709 85.4687C139.941 86.3007 138.757 86.7167 137.157 86.7167ZM205.194 87.1007C200.202 87.1007 195.722 85.9487 191.754 83.6447C187.786 81.2767 184.65 78.0767 182.346 74.0447C180.042 70.0127 178.858 65.4687 178.794 60.4127V16.6367C178.794 15.1647 179.242 13.9807 180.138 13.0847C181.098 12.1887 182.282 11.7407 183.69 11.7407C185.162 11.7407 186.346 12.1887 187.242 13.0847C188.138 13.9807 188.586 15.1647 188.586 16.6367V42.5567C190.826 39.8687 193.514 37.7567 196.65 36.2207C199.85 34.6207 203.338 33.8207 207.114 33.8207C211.786 33.8207 215.978 35.0047 219.69 37.3727C223.402 39.6767 226.314 42.8447 228.426 46.8767C230.602 50.8447 231.69 55.3567 231.69 60.4127C231.69 65.4687 230.506 70.0127 228.138 74.0447C225.834 78.0767 222.698 81.2767 218.73 83.6447C214.762 85.9487 210.25 87.1007 205.194 87.1007ZM205.194 78.4607C208.458 78.4607 211.37 77.6927 213.93 76.1567C216.49 74.5567 218.506 72.3807 219.978 69.6287C221.514 66.8767 222.282 63.8047 222.282 60.4127C222.282 56.9567 221.514 53.8847 219.978 51.1967C218.506 48.5087 216.49 46.3967 213.93 44.8607C211.37 43.2607 208.458 42.4607 205.194 42.4607C201.994 42.4607 199.082 43.2607 196.458 44.8607C193.898 46.3967 191.882 48.5087 190.41 51.1967C188.938 53.8847 188.202 56.9567 188.202 60.4127C188.202 63.8047 188.938 66.8767 190.41 69.6287C191.882 72.3807 193.898 74.5567 196.458 76.1567C199.082 77.6927 201.994 78.4607 205.194 78.4607ZM251.9 86.7167C250.492 86.7167 249.308 86.2687 248.348 85.3727C247.452 84.4127 247.004 83.2287 247.004 81.8207V39.1007C247.004 37.6287 247.452 36.4447 248.348 35.5487C249.308 34.6527 250.492 34.2047 251.9 34.2047C253.372 34.2047 254.556 34.6527 255.452 35.5487C256.348 36.4447 256.796 37.6287 256.796 39.1007V81.8207C256.796 83.2287 256.348 84.4127 255.452 85.3727C254.556 86.2687 253.372 86.7167 251.9 86.7167ZM251.9 25.6607C250.172 25.6607 248.668 25.0527 247.388 23.8367C246.172 22.5567 245.564 21.0527 245.564 19.3247C245.564 17.5967 246.172 16.1247 247.388 14.9087C248.668 13.6287 250.172 12.9887 251.9 12.9887C253.628 12.9887 255.1 13.6287 256.316 14.9087C257.596 16.1247 258.236 17.5967 258.236 19.3247C258.236 21.0527 257.596 22.5567 256.316 23.8367C255.1 25.0527 253.628 25.6607 251.9 25.6607ZM320.171 109.181C318.699 109.181 317.483 108.701 316.523 107.741C315.627 106.845 315.179 105.693 315.179 104.285V78.3647C313.003 81.0527 310.315 83.1967 307.115 84.7967C303.915 86.3327 300.427 87.1007 296.651 87.1007C291.979 87.1007 287.787 85.9487 284.075 83.6447C280.363 81.2767 277.419 78.1087 275.243 74.1407C273.131 70.1087 272.075 65.5647 272.075 60.5087C272.075 55.4527 273.227 50.9087 275.531 46.8767C277.899 42.8447 281.067 39.6767 285.035 37.3727C289.067 35.0047 293.579 33.8207 298.571 33.8207C303.563 33.8207 308.043 35.0047 312.011 37.3727C315.979 39.6767 319.115 42.8447 321.419 46.8767C323.787 50.9087 324.971 55.4527 324.971 60.5087V104.285C324.971 105.693 324.523 106.845 323.627 107.741C322.731 108.701 321.579 109.181 320.171 109.181ZM298.571 78.4607C301.835 78.4607 304.747 77.6927 307.307 76.1567C309.867 74.5567 311.883 72.4127 313.355 69.7247C314.827 66.9727 315.563 63.9007 315.563 60.5087C315.563 57.0527 314.827 53.9807 313.355 51.2927C311.883 48.5407 309.867 46.3967 307.307 44.8607C304.747 43.2607 301.835 42.4607 298.571 42.4607C295.371 42.4607 292.459 43.2607 289.835 44.8607C287.275 46.3967 285.227 48.5407 283.691 51.2927C282.219 53.9807 281.483 57.0527 281.483 60.5087C281.483 63.9007 282.219 66.9727 283.691 69.7247C285.227 72.4127 287.275 74.5567 289.835 76.1567C292.459 77.6927 295.371 78.4607 298.571 78.4607Z"/>
</mask>
<path d="M137.061 53.8847C137.061 50.0447 137.989 46.6207 139.845 43.6127C141.765 40.5407 144.325 38.1087 147.525 36.3167C150.725 34.5247 154.245 33.6287 158.085 33.6287C161.925 33.6287 164.773 34.2687 166.629 35.5487C168.549 36.7647 169.285 38.2367 168.837 39.9647C168.645 40.8607 168.261 41.5647 167.685 42.0767C167.173 42.5247 166.565 42.8127 165.861 42.9407C165.157 43.0687 164.389 43.0367 163.557 42.8447C159.461 42.0127 155.781 41.9487 152.517 42.6527C149.253 43.3567 146.661 44.6687 144.741 46.5887C142.885 48.5087 141.957 50.9407 141.957 53.8847H137.061ZM137.157 86.7167C135.621 86.7167 134.437 86.3327 133.605 85.5647C132.773 84.7327 132.357 83.5167 132.357 81.9167V39.0047C132.357 37.4687 132.773 36.2847 133.605 35.4527C134.437 34.6207 135.621 34.2047 137.157 34.2047C138.757 34.2047 139.941 34.6207 140.709 35.4527C141.541 36.2207 141.957 37.4047 141.957 39.0047V81.9167C141.957 83.4527 141.541 84.6367 140.709 85.4687C139.941 86.3007 138.757 86.7167 137.157 86.7167ZM205.194 87.1007C200.202 87.1007 195.722 85.9487 191.754 83.6447C187.786 81.2767 184.65 78.0767 182.346 74.0447C180.042 70.0127 178.858 65.4687 178.794 60.4127V16.6367C178.794 15.1647 179.242 13.9807 180.138 13.0847C181.098 12.1887 182.282 11.7407 183.69 11.7407C185.162 11.7407 186.346 12.1887 187.242 13.0847C188.138 13.9807 188.586 15.1647 188.586 16.6367V42.5567C190.826 39.8687 193.514 37.7567 196.65 36.2207C199.85 34.6207 203.338 33.8207 207.114 33.8207C211.786 33.8207 215.978 35.0047 219.69 37.3727C223.402 39.6767 226.314 42.8447 228.426 46.8767C230.602 50.8447 231.69 55.3567 231.69 60.4127C231.69 65.4687 230.506 70.0127 228.138 74.0447C225.834 78.0767 222.698 81.2767 218.73 83.6447C214.762 85.9487 210.25 87.1007 205.194 87.1007ZM205.194 78.4607C208.458 78.4607 211.37 77.6927 213.93 76.1567C216.49 74.5567 218.506 72.3807 219.978 69.6287C221.514 66.8767 222.282 63.8047 222.282 60.4127C222.282 56.9567 221.514 53.8847 219.978 51.1967C218.506 48.5087 216.49 46.3967 213.93 44.8607C211.37 43.2607 208.458 42.4607 205.194 42.4607C201.994 42.4607 199.082 43.2607 196.458 44.8607C193.898 46.3967 191.882 48.5087 190.41 51.1967C188.938 53.8847 188.202 56.9567 188.202 60.4127C188.202 63.8047 188.938 66.8767 190.41 69.6287C191.882 72.3807 193.898 74.5567 196.458 76.1567C199.082 77.6927 201.994 78.4607 205.194 78.4607ZM251.9 86.7167C250.492 86.7167 249.308 86.2687 248.348 85.3727C247.452 84.4127 247.004 83.2287 247.004 81.8207V39.1007C247.004 37.6287 247.452 36.4447 248.348 35.5487C249.308 34.6527 250.492 34.2047 251.9 34.2047C253.372 34.2047 254.556 34.6527 255.452 35.5487C256.348 36.4447 256.796 37.6287 256.796 39.1007V81.8207C256.796 83.2287 256.348 84.4127 255.452 85.3727C254.556 86.2687 253.372 86.7167 251.9 86.7167ZM251.9 25.6607C250.172 25.6607 248.668 25.0527 247.388 23.8367C246.172 22.5567 245.564 21.0527 245.564 19.3247C245.564 17.5967 246.172 16.1247 247.388 14.9087C248.668 13.6287 250.172 12.9887 251.9 12.9887C253.628 12.9887 255.1 13.6287 256.316 14.9087C257.596 16.1247 258.236 17.5967 258.236 19.3247C258.236 21.0527 257.596 22.5567 256.316 23.8367C255.1 25.0527 253.628 25.6607 251.9 25.6607ZM320.171 109.181C318.699 109.181 317.483 108.701 316.523 107.741C315.627 106.845 315.179 105.693 315.179 104.285V78.3647C313.003 81.0527 310.315 83.1967 307.115 84.7967C303.915 86.3327 300.427 87.1007 296.651 87.1007C291.979 87.1007 287.787 85.9487 284.075 83.6447C280.363 81.2767 277.419 78.1087 275.243 74.1407C273.131 70.1087 272.075 65.5647 272.075 60.5087C272.075 55.4527 273.227 50.9087 275.531 46.8767C277.899 42.8447 281.067 39.6767 285.035 37.3727C289.067 35.0047 293.579 33.8207 298.571 33.8207C303.563 33.8207 308.043 35.0047 312.011 37.3727C315.979 39.6767 319.115 42.8447 321.419 46.8767C323.787 50.9087 324.971 55.4527 324.971 60.5087V104.285C324.971 105.693 324.523 106.845 323.627 107.741C322.731 108.701 321.579 109.181 320.171 109.181ZM298.571 78.4607C301.835 78.4607 304.747 77.6927 307.307 76.1567C309.867 74.5567 311.883 72.4127 313.355 69.7247C314.827 66.9727 315.563 63.9007 315.563 60.5087C315.563 57.0527 314.827 53.9807 313.355 51.2927C311.883 48.5407 309.867 46.3967 307.307 44.8607C304.747 43.2607 301.835 42.4607 298.571 42.4607C295.371 42.4607 292.459 43.2607 289.835 44.8607C287.275 46.3967 285.227 48.5407 283.691 51.2927C282.219 53.9807 281.483 57.0527 281.483 60.5087C281.483 63.9007 282.219 66.9727 283.691 69.7247C285.227 72.4127 287.275 74.5567 289.835 76.1567C292.459 77.6927 295.371 78.4607 298.571 78.4607Z" fill="black"/>
<path d="M137.061 53.8847H135.061V55.8847H137.061V53.8847ZM139.845 43.6127L138.149 42.5527L138.143 42.5625L139.845 43.6127ZM147.525 36.3167L146.547 34.5717H146.547L147.525 36.3167ZM166.629 35.5487L165.493 37.1951L165.525 37.2173L165.559 37.2383L166.629 35.5487ZM168.837 39.9647L166.901 39.4627L166.89 39.504L166.881 39.5456L168.837 39.9647ZM167.685 42.0767L169.002 43.5818L169.008 43.5767L169.013 43.5715L167.685 42.0767ZM165.861 42.9407L165.503 40.9729V40.9729L165.861 42.9407ZM163.557 42.8447L164.006 40.8959L163.981 40.89L163.955 40.8847L163.557 42.8447ZM144.741 46.5887L143.326 45.1745L143.314 45.1864L143.303 45.1986L144.741 46.5887ZM141.957 53.8847V55.8847H143.957V53.8847H141.957ZM133.605 85.5647L132.19 86.9789L132.219 87.0072L132.248 87.0343L133.605 85.5647ZM133.605 35.4527L135.019 36.8669H135.019L133.605 35.4527ZM140.709 35.4527L139.239 36.8092L139.293 36.868L139.352 36.9223L140.709 35.4527ZM140.709 85.4687L139.294 84.0545L139.266 84.0827L139.239 84.1121L140.709 85.4687ZM137.061 53.8847H139.061C139.061 50.3824 139.902 47.3281 141.547 44.6629L139.845 43.6127L138.143 42.5625C136.075 45.9133 135.061 49.707 135.061 53.8847H137.061ZM139.845 43.6127L141.541 44.6727C143.28 41.8895 145.591 39.6915 148.502 38.0617L147.525 36.3167L146.547 34.5717C143.058 36.5258 140.249 39.1919 138.149 42.5527L139.845 43.6127ZM147.525 36.3167L148.502 38.0617C151.389 36.4449 154.57 35.6287 158.085 35.6287V33.6287V31.6287C153.919 31.6287 150.06 32.6045 146.547 34.5717L147.525 36.3167ZM158.085 33.6287V35.6287C161.774 35.6287 164.133 36.2568 165.493 37.1951L166.629 35.5487L167.764 33.9022C165.413 32.2806 162.075 31.6287 158.085 31.6287V33.6287ZM166.629 35.5487L165.559 37.2383C166.323 37.7227 166.677 38.1499 166.832 38.4591C166.965 38.7247 167.014 39.0239 166.901 39.4627L168.837 39.9647L170.773 40.4666C171.107 39.1775 171.013 37.8766 170.41 36.6702C169.828 35.5075 168.854 34.5907 167.699 33.859L166.629 35.5487ZM168.837 39.9647L166.881 39.5456C166.761 40.1064 166.557 40.403 166.356 40.5819L167.685 42.0767L169.013 43.5715C169.964 42.7263 170.528 41.615 170.792 40.3837L168.837 39.9647ZM167.685 42.0767L166.368 40.5715C166.142 40.7689 165.87 40.9061 165.503 40.9729L165.861 42.9407L166.218 44.9084C167.259 44.7192 168.203 44.2804 169.002 43.5818L167.685 42.0767ZM165.861 42.9407L165.503 40.9729C165.113 41.0438 164.624 41.0383 164.006 40.8959L163.557 42.8447L163.107 44.7935C164.154 45.035 165.2 45.0935 166.218 44.9084L165.861 42.9407ZM163.557 42.8447L163.955 40.8847C159.654 40.0111 155.688 39.9227 152.095 40.6976L152.517 42.6527L152.938 44.6077C155.874 43.9746 159.267 44.0142 163.159 44.8046L163.557 42.8447ZM152.517 42.6527L152.095 40.6976C148.542 41.464 145.575 42.9259 143.326 45.1745L144.741 46.5887L146.155 48.0029C147.746 46.4114 149.964 45.2493 152.938 44.6077L152.517 42.6527ZM144.741 46.5887L143.303 45.1986C141.048 47.5313 139.957 50.48 139.957 53.8847H141.957H143.957C143.957 51.4013 144.722 49.486 146.179 47.9787L144.741 46.5887ZM141.957 53.8847V51.8847H137.061V53.8847V55.8847H141.957V53.8847ZM137.157 86.7167V84.7167C135.942 84.7167 135.309 84.416 134.961 84.0951L133.605 85.5647L132.248 87.0343C133.564 88.2493 135.3 88.7167 137.157 88.7167V86.7167ZM133.605 85.5647L135.019 84.1505C134.681 83.8124 134.357 83.182 134.357 81.9167H132.357H130.357C130.357 83.8513 130.865 85.653 132.19 86.9789L133.605 85.5647ZM132.357 81.9167H134.357V39.0047H132.357H130.357V81.9167H132.357ZM132.357 39.0047H134.357C134.357 37.8305 134.666 37.2194 135.019 36.8669L133.605 35.4527L132.19 34.0385C130.879 35.35 130.357 37.1069 130.357 39.0047H132.357ZM133.605 35.4527L135.019 36.8669C135.371 36.5144 135.982 36.2047 137.157 36.2047V34.2047V32.2047C135.259 32.2047 133.502 32.727 132.19 34.0385L133.605 35.4527ZM137.157 34.2047V36.2047C138.435 36.2047 138.985 36.5336 139.239 36.8092L140.709 35.4527L142.178 34.0961C140.897 32.7077 139.079 32.2047 137.157 32.2047V34.2047ZM140.709 35.4527L139.352 36.9223C139.628 37.1767 139.957 37.7267 139.957 39.0047H141.957H143.957C143.957 37.0826 143.454 35.2646 142.065 33.9831L140.709 35.4527ZM141.957 39.0047H139.957V81.9167H141.957H143.957V39.0047H141.957ZM141.957 81.9167H139.957C139.957 83.0909 139.647 83.702 139.294 84.0545L140.709 85.4687L142.123 86.8829C143.434 85.5714 143.957 83.8145 143.957 81.9167H141.957ZM140.709 85.4687L139.239 84.1121C138.985 84.3877 138.435 84.7167 137.157 84.7167V86.7167V88.7167C139.079 88.7167 140.897 88.2136 142.178 86.8252L140.709 85.4687ZM191.754 83.6447L190.729 85.3621L190.74 85.3682L190.75 85.3743L191.754 83.6447ZM182.346 74.0447L180.61 75.037V75.037L182.346 74.0447ZM178.794 60.4127H176.794V60.4253L176.794 60.438L178.794 60.4127ZM180.138 13.0847L178.774 11.6226L178.748 11.6461L178.724 11.6705L180.138 13.0847ZM188.586 42.5567H186.586V48.0808L190.123 43.837L188.586 42.5567ZM196.65 36.2207L197.53 38.0168L197.537 38.0132L197.545 38.0095L196.65 36.2207ZM219.69 37.3727L218.615 39.0588L218.625 39.0654L218.635 39.072L219.69 37.3727ZM228.426 46.8767L226.655 47.8047L226.663 47.8216L226.673 47.8383L228.426 46.8767ZM228.138 74.0447L226.414 73.0318L226.408 73.0421L226.402 73.0524L228.138 74.0447ZM218.73 83.6447L219.734 85.3743L219.745 85.3682L219.755 85.3621L218.73 83.6447ZM213.93 76.1567L214.959 77.8717L214.975 77.8623L214.99 77.8527L213.93 76.1567ZM219.978 69.6287L218.232 68.6539L218.223 68.6696L218.215 68.6854L219.978 69.6287ZM219.978 51.1967L218.224 52.1573L218.233 52.1732L218.242 52.189L219.978 51.1967ZM213.93 44.8607L212.87 46.5567L212.886 46.5663L212.901 46.5757L213.93 44.8607ZM196.458 44.8607L197.487 46.5757L197.493 46.572L197.499 46.5683L196.458 44.8607ZM190.41 51.1967L192.164 52.1573V52.1573L190.41 51.1967ZM190.41 69.6287L188.647 70.572V70.572L190.41 69.6287ZM196.458 76.1567L195.398 77.8527L195.423 77.868L195.448 77.8827L196.458 76.1567ZM205.194 87.1007V85.1007C200.523 85.1007 196.395 84.0266 192.758 81.9151L191.754 83.6447L190.75 85.3743C195.049 87.8708 199.881 89.1007 205.194 89.1007V87.1007ZM191.754 83.6447L192.779 81.9272C189.108 79.7366 186.217 76.787 184.083 73.0524L182.346 74.0447L180.61 75.037C183.084 79.3663 186.464 82.8167 190.729 85.3621L191.754 83.6447ZM182.346 74.0447L184.083 73.0524C181.962 69.3409 180.854 65.1349 180.794 60.3874L178.794 60.4127L176.794 60.438C176.862 65.8025 178.123 70.6844 180.61 75.037L182.346 74.0447ZM178.794 60.4127H180.794V16.6367H178.794H176.794V60.4127H178.794ZM178.794 16.6367H180.794C180.794 15.6024 181.092 14.959 181.552 14.4989L180.138 13.0847L178.724 11.6705C177.392 13.0024 176.794 14.727 176.794 16.6367H178.794ZM180.138 13.0847L181.503 14.5468C182.064 14.0228 182.749 13.7407 183.69 13.7407V11.7407V9.74068C181.816 9.74068 180.132 10.3545 178.774 11.6226L180.138 13.0847ZM183.69 11.7407V13.7407C184.724 13.7407 185.368 14.0388 185.828 14.4989L187.242 13.0847L188.656 11.6705C187.324 10.3386 185.6 9.74068 183.69 9.74068V11.7407ZM187.242 13.0847L185.828 14.4989C186.288 14.959 186.586 15.6024 186.586 16.6367H188.586H190.586C190.586 14.727 189.988 13.0024 188.656 11.6705L187.242 13.0847ZM188.586 16.6367H186.586V42.5567H188.586H190.586V16.6367H188.586ZM188.586 42.5567L190.123 43.837C192.183 41.3648 194.647 39.4287 197.53 38.0168L196.65 36.2207L195.77 34.4245C192.381 36.0846 189.47 38.3725 187.05 41.2763L188.586 42.5567ZM196.65 36.2207L197.545 38.0095C200.452 36.5561 203.631 35.8207 207.114 35.8207V33.8207V31.8207C203.045 31.8207 199.249 32.6853 195.756 34.4318L196.65 36.2207ZM207.114 33.8207V35.8207C211.429 35.8207 215.244 36.9085 218.615 39.0588L219.69 37.3727L220.766 35.6866C216.713 33.1008 212.143 31.8207 207.114 31.8207V33.8207ZM219.69 37.3727L218.635 39.072C222.031 41.1795 224.701 44.0754 226.655 47.8047L228.426 46.8767L230.198 45.9487C227.927 41.614 224.773 38.1739 220.745 35.6734L219.69 37.3727ZM228.426 46.8767L226.673 47.8383C228.669 51.4783 229.69 55.6527 229.69 60.4127H231.69H233.69C233.69 55.0606 232.536 50.2111 230.18 45.915L228.426 46.8767ZM231.69 60.4127H229.69C229.69 65.1425 228.587 69.3317 226.414 73.0318L228.138 74.0447L229.863 75.0575C232.426 70.6936 233.69 65.7949 233.69 60.4127H231.69ZM228.138 74.0447L226.402 73.0524C224.268 76.787 221.376 79.7366 217.705 81.9272L218.73 83.6447L219.755 85.3621C224.02 82.8167 227.401 79.3663 229.875 75.037L228.138 74.0447ZM218.73 83.6447L217.726 81.9151C214.093 84.0243 209.934 85.1007 205.194 85.1007V87.1007V89.1007C210.566 89.1007 215.431 87.873 219.734 85.3743L218.73 83.6447ZM205.194 78.4607V80.4607C208.786 80.4607 212.06 79.6113 214.959 77.8717L213.93 76.1567L212.901 74.4417C210.681 75.774 208.131 76.4607 205.194 76.4607V78.4607ZM213.93 76.1567L214.99 77.8527C217.857 76.0611 220.111 73.6211 221.742 70.572L219.978 69.6287L218.215 68.6854C216.902 71.1402 215.124 73.0523 212.87 74.4607L213.93 76.1567ZM219.978 69.6287L221.725 70.6034C223.439 67.5309 224.282 64.1191 224.282 60.4127H222.282H220.282C220.282 63.4903 219.589 66.2225 218.232 68.6539L219.978 69.6287ZM222.282 60.4127H224.282C224.282 56.65 223.443 53.2286 221.715 50.2044L219.978 51.1967L218.242 52.189C219.586 54.5408 220.282 57.2634 220.282 60.4127H222.282ZM219.978 51.1967L221.732 50.236C220.095 47.2453 217.832 44.8693 214.959 43.1457L213.93 44.8607L212.901 46.5757C215.148 47.924 216.918 49.772 218.224 52.1573L219.978 51.1967ZM213.93 44.8607L214.99 43.1647C212.087 41.3499 208.801 40.4607 205.194 40.4607V42.4607V44.4607C208.115 44.4607 210.654 45.1715 212.87 46.5567L213.93 44.8607ZM205.194 42.4607V40.4607C201.643 40.4607 198.368 41.3537 195.417 43.1531L196.458 44.8607L197.499 46.5683C199.796 45.1676 202.346 44.4607 205.194 44.4607V42.4607ZM196.458 44.8607L195.429 43.1457C192.556 44.8693 190.294 47.2453 188.656 50.236L190.41 51.1967L192.164 52.1573C193.471 49.772 195.24 47.924 197.487 46.5757L196.458 44.8607ZM190.41 51.1967L188.656 50.236C187.003 53.2545 186.202 56.6644 186.202 60.4127H188.202H190.202C190.202 57.2489 190.873 54.5148 192.164 52.1573L190.41 51.1967ZM188.202 60.4127H186.202C186.202 64.1045 187.006 67.505 188.647 70.572L190.41 69.6287L192.174 68.6854C190.87 66.2483 190.202 63.5048 190.202 60.4127H188.202ZM190.41 69.6287L188.647 70.572C190.278 73.6211 192.532 76.0611 195.398 77.8527L196.458 76.1567L197.518 74.4607C195.265 73.0523 193.487 71.1402 192.174 68.6854L190.41 69.6287ZM196.458 76.1567L195.448 77.8827C198.395 79.6077 201.658 80.4607 205.194 80.4607V78.4607V76.4607C202.33 76.4607 199.77 75.7777 197.469 74.4306L196.458 76.1567ZM248.348 85.3727L246.886 86.7373L246.933 86.7877L246.984 86.8348L248.348 85.3727ZM248.348 35.5487L246.984 34.0866L246.958 34.1101L246.934 34.1345L248.348 35.5487ZM255.452 85.3727L256.866 86.7869L256.891 86.7625L256.914 86.7373L255.452 85.3727ZM247.388 23.8367L245.938 25.2142L245.974 25.2514L246.011 25.2867L247.388 23.8367ZM247.388 14.9087L245.974 13.4945V13.4945L247.388 14.9087ZM256.316 14.9087L254.866 16.2862L254.902 16.3233L254.939 16.3587L256.316 14.9087ZM256.316 23.8367L257.73 25.2509V25.2509L256.316 23.8367ZM251.9 86.7167V84.7167C250.959 84.7167 250.274 84.4345 249.713 83.9106L248.348 85.3727L246.984 86.8348C248.342 88.1028 250.026 88.7167 251.9 88.7167V86.7167ZM248.348 85.3727L249.81 84.008C249.286 83.4467 249.004 82.7621 249.004 81.8207H247.004H245.004C245.004 83.6952 245.618 85.3787 246.886 86.7373L248.348 85.3727ZM247.004 81.8207H249.004V39.1007H247.004H245.004V81.8207H247.004ZM247.004 39.1007H249.004C249.004 38.0664 249.302 37.423 249.762 36.9629L248.348 35.5487L246.934 34.1345C245.602 35.4664 245.004 37.191 245.004 39.1007H247.004ZM248.348 35.5487L249.713 37.0108C250.274 36.4868 250.959 36.2047 251.9 36.2047V34.2047V32.2047C250.026 32.2047 248.342 32.8185 246.984 34.0866L248.348 35.5487ZM251.9 34.2047V36.2047C252.934 36.2047 253.578 36.5028 254.038 36.9629L255.452 35.5487L256.866 34.1345C255.534 32.8025 253.81 32.2047 251.9 32.2047V34.2047ZM255.452 35.5487L254.038 36.9629C254.498 37.423 254.796 38.0664 254.796 39.1007H256.796H258.796C258.796 37.191 258.198 35.4664 256.866 34.1345L255.452 35.5487ZM256.796 39.1007H254.796V81.8207H256.796H258.796V39.1007H256.796ZM256.796 81.8207H254.796C254.796 82.7621 254.514 83.4467 253.99 84.008L255.452 85.3727L256.914 86.7373C258.182 85.3787 258.796 83.6952 258.796 81.8207H256.796ZM255.452 85.3727L254.038 83.9585C253.578 84.4186 252.934 84.7167 251.9 84.7167V86.7167V88.7167C253.81 88.7167 255.534 88.1188 256.866 86.7869L255.452 85.3727ZM251.9 25.6607V23.6607C250.697 23.6607 249.683 23.2581 248.766 22.3867L247.388 23.8367L246.011 25.2867C247.653 26.8473 249.647 27.6607 251.9 27.6607V25.6607ZM247.388 23.8367L248.838 22.4592C247.967 21.5419 247.564 20.5277 247.564 19.3247H245.564H243.564C243.564 21.5776 244.378 23.5714 245.938 25.2142L247.388 23.8367ZM245.564 19.3247H247.564C247.564 18.1242 247.964 17.1618 248.802 16.3229L247.388 14.9087L245.974 13.4945C244.381 15.0876 243.564 17.0691 243.564 19.3247H245.564ZM247.388 14.9087L248.802 16.3229C249.727 15.3981 250.73 14.9887 251.9 14.9887V12.9887V10.9887C249.614 10.9887 247.609 11.8593 245.974 13.4945L247.388 14.9087ZM251.9 12.9887V14.9887C253.067 14.9887 254.019 15.3939 254.866 16.2862L256.316 14.9087L257.766 13.5312C256.182 11.8635 254.19 10.9887 251.9 10.9887V12.9887ZM256.316 14.9087L254.939 16.3587C255.831 17.2063 256.236 18.1582 256.236 19.3247H258.236H260.236C260.236 17.0351 259.361 15.043 257.694 13.4587L256.316 14.9087ZM258.236 19.3247H256.236C256.236 20.4948 255.827 21.4977 254.902 22.4225L256.316 23.8367L257.73 25.2509C259.366 23.6157 260.236 21.6106 260.236 19.3247H258.236ZM256.316 23.8367L254.902 22.4225C254.063 23.2613 253.101 23.6607 251.9 23.6607V25.6607V27.6607C254.156 27.6607 256.137 26.844 257.73 25.2509L256.316 23.8367ZM316.523 107.741L317.937 106.326V106.326L316.523 107.741ZM315.179 78.3647H317.179V72.7154L313.624 77.1063L315.179 78.3647ZM307.115 84.7967L307.98 86.5997L307.995 86.5927L308.009 86.5855L307.115 84.7967ZM284.075 83.6447L282.999 85.3308L283.01 85.3374L283.02 85.344L284.075 83.6447ZM275.243 74.1407L273.471 75.0687L273.48 75.0856L273.489 75.1023L275.243 74.1407ZM275.531 46.8767L273.806 45.8638L273.8 45.8741L273.794 45.8844L275.531 46.8767ZM285.035 37.3727L286.039 39.1023L286.048 39.0972L285.035 37.3727ZM312.011 37.3727L310.986 39.0901L310.996 39.0962L311.007 39.1023L312.011 37.3727ZM321.419 46.8767L319.682 47.8689L319.688 47.8793L319.694 47.8895L321.419 46.8767ZM323.627 107.741L322.213 106.326L322.188 106.351L322.165 106.376L323.627 107.741ZM307.307 76.1567L308.336 77.8717L308.352 77.8623L308.367 77.8527L307.307 76.1567ZM313.355 69.7247L315.109 70.6853L315.114 70.6767L315.119 70.668L313.355 69.7247ZM313.355 51.2927L311.591 52.236L311.596 52.2447L311.601 52.2533L313.355 51.2927ZM307.307 44.8607L306.247 46.5567L306.262 46.5663L306.278 46.5757L307.307 44.8607ZM289.835 44.8607L290.864 46.5757L290.87 46.572L290.876 46.5683L289.835 44.8607ZM283.691 51.2927L281.945 50.3179L281.941 50.325L281.937 50.332L283.691 51.2927ZM283.691 69.7247L281.927 70.668L281.941 70.6927L281.954 70.717L283.691 69.7247ZM289.835 76.1567L288.775 77.8527L288.8 77.868L288.825 77.8827L289.835 76.1567ZM320.171 109.181V107.181C319.18 107.181 318.489 106.878 317.937 106.326L316.523 107.741L315.109 109.155C316.477 110.523 318.218 111.181 320.171 111.181V109.181ZM316.523 107.741L317.937 106.326C317.46 105.849 317.179 105.227 317.179 104.285H315.179H313.179C313.179 106.159 313.794 107.84 315.109 109.155L316.523 107.741ZM315.179 104.285H317.179V78.3647H315.179H313.179V104.285H315.179ZM315.179 78.3647L313.624 77.1063C311.634 79.5646 309.174 81.531 306.221 83.0078L307.115 84.7967L308.009 86.5855C311.456 84.8624 314.372 82.5407 316.733 79.6231L315.179 78.3647ZM307.115 84.7967L306.249 82.9936C303.337 84.3918 300.147 85.1007 296.651 85.1007V87.1007V89.1007C300.707 89.1007 304.493 88.2736 307.98 86.5997L307.115 84.7967ZM296.651 87.1007V85.1007C292.325 85.1007 288.503 84.0391 285.13 81.9454L284.075 83.6447L283.02 85.344C287.071 87.8583 291.633 89.1007 296.651 89.1007V87.1007ZM284.075 83.6447L285.151 81.9585C281.73 79.7764 279.016 76.8609 276.997 73.179L275.243 74.1407L273.489 75.1023C275.822 79.3564 278.996 82.7769 282.999 85.3308L284.075 83.6447ZM275.243 74.1407L277.015 73.2127C275.069 69.4976 274.075 65.2778 274.075 60.5087H272.075H270.075C270.075 65.8515 271.193 70.7198 273.471 75.0687L275.243 74.1407ZM272.075 60.5087H274.075C274.075 55.7689 275.151 51.5723 277.267 47.8689L275.531 46.8767L273.794 45.8844C271.303 50.245 270.075 55.1364 270.075 60.5087H272.075ZM275.531 46.8767L277.256 47.8895C279.453 44.1485 282.375 41.2299 286.039 39.1023L285.035 37.3727L284.031 35.6431C279.759 38.1234 276.345 41.5408 273.806 45.8638L275.531 46.8767ZM285.035 37.3727L286.048 39.0972C289.752 36.9218 293.91 35.8207 298.571 35.8207V33.8207V31.8207C293.248 31.8207 288.382 33.0875 284.022 35.6481L285.035 37.3727ZM298.571 33.8207V35.8207C303.232 35.8207 307.353 36.9218 310.986 39.0901L312.011 37.3727L313.036 35.6553C308.733 33.0875 303.894 31.8207 298.571 31.8207V33.8207ZM312.011 37.3727L311.007 39.1023C314.666 41.2271 317.551 44.139 319.682 47.8689L321.419 46.8767L323.155 45.8844C320.679 41.5503 317.292 38.1263 313.015 35.6431L312.011 37.3727ZM321.419 46.8767L319.694 47.8895C321.867 51.5896 322.971 55.7789 322.971 60.5087H324.971H326.971C326.971 55.1265 325.706 50.2277 323.144 45.8638L321.419 46.8767ZM324.971 60.5087H322.971V104.285H324.971H326.971V60.5087H324.971ZM324.971 104.285H322.971C322.971 105.227 322.69 105.849 322.213 106.326L323.627 107.741L325.041 109.155C326.356 107.84 326.971 106.159 326.971 104.285H324.971ZM323.627 107.741L322.165 106.376C321.677 106.899 321.069 107.181 320.171 107.181V109.181V111.181C322.089 111.181 323.785 110.502 325.089 109.105L323.627 107.741ZM298.571 78.4607V80.4607C302.162 80.4607 305.436 79.6113 308.336 77.8717L307.307 76.1567L306.278 74.4417C304.057 75.774 301.507 76.4607 298.571 76.4607V78.4607ZM307.307 76.1567L308.367 77.8527C311.222 76.0682 313.475 73.6691 315.109 70.6853L313.355 69.7247L311.601 68.764C310.291 71.1563 308.512 73.0451 306.247 74.4607L307.307 76.1567ZM313.355 69.7247L315.119 70.668C316.759 67.601 317.563 64.2005 317.563 60.5087H315.563H313.563C313.563 63.6008 312.895 66.3443 311.591 68.7814L313.355 69.7247ZM315.563 60.5087H317.563C317.563 56.7604 316.762 53.3505 315.109 50.332L313.355 51.2927L311.601 52.2533C312.892 54.6108 313.563 57.3449 313.563 60.5087H315.563ZM313.355 51.2927L315.119 50.3494C313.484 47.2936 311.22 44.8764 308.336 43.1457L307.307 44.8607L306.278 46.5757C308.513 47.917 310.282 49.7878 311.591 52.236L313.355 51.2927ZM307.307 44.8607L308.367 43.1647C305.463 41.3499 302.178 40.4607 298.571 40.4607V42.4607V44.4607C301.492 44.4607 304.031 45.1715 306.247 46.5567L307.307 44.8607ZM298.571 42.4607V40.4607C295.019 40.4607 291.745 41.3537 288.794 43.1531L289.835 44.8607L290.876 46.5683C293.173 45.1676 295.722 44.4607 298.571 44.4607V42.4607ZM289.835 44.8607L288.806 43.1457C285.929 44.8716 283.641 47.2784 281.945 50.3179L283.691 51.2927L285.437 52.2674C286.813 49.803 288.62 47.9217 290.864 46.5757L289.835 44.8607ZM283.691 51.2927L281.937 50.332C280.284 53.3505 279.483 56.7604 279.483 60.5087H281.483H283.483C283.483 57.3449 284.154 54.6108 285.445 52.2533L283.691 51.2927ZM281.483 60.5087H279.483C279.483 64.2005 280.287 67.601 281.927 70.668L283.691 69.7247L285.455 68.7814C284.151 66.3443 283.483 63.6008 283.483 60.5087H281.483ZM283.691 69.7247L281.954 70.717C283.65 73.6842 285.927 76.073 288.775 77.8527L289.835 76.1567L290.895 74.4607C288.622 73.0404 286.804 71.1412 285.427 68.7324L283.691 69.7247ZM289.835 76.1567L288.825 77.8827C291.771 79.6077 295.035 80.4607 298.571 80.4607V78.4607V76.4607C295.707 76.4607 293.146 75.7777 290.845 74.4306L289.835 76.1567Z" fill="black" mask="url(#path-3-outside-1_2_8)"/>
</svg>
