<svg width="124" height="124" viewBox="0 0 124 124" fill="none" xmlns="http://www.w3.org/2000/svg">
<g clip-path="url(#clip0_1_2)">
<path d="M73.491 104.887C64.05 107.416 54.0382 106.76 45.0083 103.02C35.9784 99.2794 28.4349 92.664 23.548 84.1995C18.661 75.735 16.7036 65.8945 17.9794 56.2042C19.2552 46.5138 23.6928 37.5152 30.604 30.604C37.5152 23.6928 46.5138 19.2552 56.2042 17.9794C65.8945 16.7036 75.735 18.661 84.1995 23.548C92.664 28.4349 99.2794 35.9784 103.02 45.0083C106.76 54.0382 107.416 64.05 104.887 73.491" stroke="white" stroke-width="23.4333"/>
<path d="M104.887 85.8243C111.698 85.8243 117.22 80.3025 117.22 73.491C117.22 66.6795 111.698 61.1576 104.887 61.1576C98.0752 61.1576 92.5534 66.6795 92.5534 73.491C92.5534 80.3025 98.0752 85.8243 104.887 85.8243Z" fill="white"/>
</g>
<defs>
<clipPath id="clip0_1_2">
<rect width="124" height="124" fill="white"/>
</clipPath>
</defs>
</svg>
