<svg width="197" height="102" viewBox="0 0 197 102" fill="none" xmlns="http://www.w3.org/2000/svg">
<mask id="path-1-outside-1_2_22" maskUnits="userSpaceOnUse" x="-0.639999" y="-0.0239868" width="198" height="102" fill="black">
<rect fill="white" x="-0.639999" y="-0.0239868" width="198" height="102"/>
<path d="M6.704 44.144C6.704 40.304 7.632 36.88 9.488 33.872C11.408 30.8 13.968 28.368 17.168 26.576C20.368 24.784 23.888 23.888 27.728 23.888C31.568 23.888 34.416 24.528 36.272 25.808C38.192 27.024 38.928 28.496 38.48 30.224C38.288 31.12 37.904 31.824 37.328 32.336C36.816 32.784 36.208 33.072 35.504 33.2C34.8 33.328 34.032 33.296 33.2 33.104C29.104 32.272 25.424 32.208 22.16 32.912C18.896 33.616 16.304 34.928 14.384 36.848C12.528 38.768 11.6 41.2 11.6 44.144H6.704ZM6.8 76.976C5.264 76.976 4.08 76.592 3.248 75.824C2.416 74.992 2 73.776 2 72.176V29.264C2 27.728 2.416 26.544 3.248 25.712C4.08 24.88 5.264 24.464 6.8 24.464C8.4 24.464 9.584 24.88 10.352 25.712C11.184 26.48 11.6 27.664 11.6 29.264V72.176C11.6 73.712 11.184 74.896 10.352 75.728C9.584 76.56 8.4 76.976 6.8 76.976ZM74.8375 77.36C69.8455 77.36 65.3655 76.208 61.3975 73.904C57.4295 71.536 54.2935 68.336 51.9895 64.304C49.6855 60.272 48.5015 55.728 48.4375 50.672V6.89601C48.4375 5.42401 48.8855 4.24001 49.7815 3.34401C50.7415 2.44801 51.9255 2.00001 53.3335 2.00001C54.8055 2.00001 55.9895 2.44801 56.8855 3.34401C57.7815 4.24001 58.2295 5.42401 58.2295 6.89601V32.816C60.4695 30.128 63.1575 28.016 66.2935 26.48C69.4935 24.88 72.9815 24.08 76.7575 24.08C81.4295 24.08 85.6215 25.264 89.3335 27.632C93.0455 29.936 95.9575 33.104 98.0695 37.136C100.246 41.104 101.334 45.616 101.334 50.672C101.334 55.728 100.15 60.272 97.7815 64.304C95.4775 68.336 92.3415 71.536 88.3735 73.904C84.4055 76.208 79.8935 77.36 74.8375 77.36ZM74.8375 68.72C78.1015 68.72 81.0135 67.952 83.5735 66.416C86.1335 64.816 88.1495 62.64 89.6215 59.888C91.1575 57.136 91.9255 54.064 91.9255 50.672C91.9255 47.216 91.1575 44.144 89.6215 41.456C88.1495 38.768 86.1335 36.656 83.5735 35.12C81.0135 33.52 78.1015 32.72 74.8375 32.72C71.6375 32.72 68.7255 33.52 66.1015 35.12C63.5415 36.656 61.5255 38.768 60.0535 41.456C58.5815 44.144 57.8455 47.216 57.8455 50.672C57.8455 54.064 58.5815 57.136 60.0535 59.888C61.5255 62.64 63.5415 64.816 66.1015 66.416C68.7255 67.952 71.6375 68.72 74.8375 68.72ZM121.544 76.976C120.136 76.976 118.952 76.528 117.992 75.632C117.096 74.672 116.648 73.488 116.648 72.08V29.36C116.648 27.888 117.096 26.704 117.992 25.808C118.952 24.912 120.136 24.464 121.544 24.464C123.016 24.464 124.2 24.912 125.096 25.808C125.992 26.704 126.44 27.888 126.44 29.36V72.08C126.44 73.488 125.992 74.672 125.096 75.632C124.2 76.528 123.016 76.976 121.544 76.976ZM121.544 15.92C119.816 15.92 118.312 15.312 117.032 14.096C115.816 12.816 115.208 11.312 115.208 9.58401C115.208 7.85601 115.816 6.38401 117.032 5.16801C118.312 3.88801 119.816 3.24801 121.544 3.24801C123.272 3.24801 124.744 3.88801 125.96 5.16801C127.24 6.38401 127.88 7.85601 127.88 9.58401C127.88 11.312 127.24 12.816 125.96 14.096C124.744 15.312 123.272 15.92 121.544 15.92ZM189.814 99.44C188.342 99.44 187.126 98.96 186.166 98C185.27 97.104 184.822 95.952 184.822 94.544V68.624C182.646 71.312 179.958 73.456 176.758 75.056C173.558 76.592 170.07 77.36 166.294 77.36C161.622 77.36 157.43 76.208 153.718 73.904C150.006 71.536 147.062 68.368 144.886 64.4C142.774 60.368 141.718 55.824 141.718 50.768C141.718 45.712 142.87 41.168 145.174 37.136C147.542 33.104 150.71 29.936 154.678 27.632C158.71 25.264 163.222 24.08 168.214 24.08C173.206 24.08 177.686 25.264 181.654 27.632C185.622 29.936 188.758 33.104 191.062 37.136C193.43 41.168 194.614 45.712 194.614 50.768V94.544C194.614 95.952 194.166 97.104 193.27 98C192.374 98.96 191.222 99.44 189.814 99.44ZM168.214 68.72C171.478 68.72 174.39 67.952 176.95 66.416C179.51 64.816 181.526 62.672 182.998 59.984C184.47 57.232 185.206 54.16 185.206 50.768C185.206 47.312 184.47 44.24 182.998 41.552C181.526 38.8 179.51 36.656 176.95 35.12C174.39 33.52 171.478 32.72 168.214 32.72C165.014 32.72 162.102 33.52 159.478 35.12C156.918 36.656 154.87 38.8 153.334 41.552C151.862 44.24 151.126 47.312 151.126 50.768C151.126 54.16 151.862 57.232 153.334 59.984C154.87 62.672 156.918 64.816 159.478 66.416C162.102 67.952 165.014 68.72 168.214 68.72Z"/>
</mask>
<path d="M6.704 44.144C6.704 40.304 7.632 36.88 9.488 33.872C11.408 30.8 13.968 28.368 17.168 26.576C20.368 24.784 23.888 23.888 27.728 23.888C31.568 23.888 34.416 24.528 36.272 25.808C38.192 27.024 38.928 28.496 38.48 30.224C38.288 31.12 37.904 31.824 37.328 32.336C36.816 32.784 36.208 33.072 35.504 33.2C34.8 33.328 34.032 33.296 33.2 33.104C29.104 32.272 25.424 32.208 22.16 32.912C18.896 33.616 16.304 34.928 14.384 36.848C12.528 38.768 11.6 41.2 11.6 44.144H6.704ZM6.8 76.976C5.264 76.976 4.08 76.592 3.248 75.824C2.416 74.992 2 73.776 2 72.176V29.264C2 27.728 2.416 26.544 3.248 25.712C4.08 24.88 5.264 24.464 6.8 24.464C8.4 24.464 9.584 24.88 10.352 25.712C11.184 26.48 11.6 27.664 11.6 29.264V72.176C11.6 73.712 11.184 74.896 10.352 75.728C9.584 76.56 8.4 76.976 6.8 76.976ZM74.8375 77.36C69.8455 77.36 65.3655 76.208 61.3975 73.904C57.4295 71.536 54.2935 68.336 51.9895 64.304C49.6855 60.272 48.5015 55.728 48.4375 50.672V6.89601C48.4375 5.42401 48.8855 4.24001 49.7815 3.34401C50.7415 2.44801 51.9255 2.00001 53.3335 2.00001C54.8055 2.00001 55.9895 2.44801 56.8855 3.34401C57.7815 4.24001 58.2295 5.42401 58.2295 6.89601V32.816C60.4695 30.128 63.1575 28.016 66.2935 26.48C69.4935 24.88 72.9815 24.08 76.7575 24.08C81.4295 24.08 85.6215 25.264 89.3335 27.632C93.0455 29.936 95.9575 33.104 98.0695 37.136C100.246 41.104 101.334 45.616 101.334 50.672C101.334 55.728 100.15 60.272 97.7815 64.304C95.4775 68.336 92.3415 71.536 88.3735 73.904C84.4055 76.208 79.8935 77.36 74.8375 77.36ZM74.8375 68.72C78.1015 68.72 81.0135 67.952 83.5735 66.416C86.1335 64.816 88.1495 62.64 89.6215 59.888C91.1575 57.136 91.9255 54.064 91.9255 50.672C91.9255 47.216 91.1575 44.144 89.6215 41.456C88.1495 38.768 86.1335 36.656 83.5735 35.12C81.0135 33.52 78.1015 32.72 74.8375 32.72C71.6375 32.72 68.7255 33.52 66.1015 35.12C63.5415 36.656 61.5255 38.768 60.0535 41.456C58.5815 44.144 57.8455 47.216 57.8455 50.672C57.8455 54.064 58.5815 57.136 60.0535 59.888C61.5255 62.64 63.5415 64.816 66.1015 66.416C68.7255 67.952 71.6375 68.72 74.8375 68.72ZM121.544 76.976C120.136 76.976 118.952 76.528 117.992 75.632C117.096 74.672 116.648 73.488 116.648 72.08V29.36C116.648 27.888 117.096 26.704 117.992 25.808C118.952 24.912 120.136 24.464 121.544 24.464C123.016 24.464 124.2 24.912 125.096 25.808C125.992 26.704 126.44 27.888 126.44 29.36V72.08C126.44 73.488 125.992 74.672 125.096 75.632C124.2 76.528 123.016 76.976 121.544 76.976ZM121.544 15.92C119.816 15.92 118.312 15.312 117.032 14.096C115.816 12.816 115.208 11.312 115.208 9.58401C115.208 7.85601 115.816 6.38401 117.032 5.16801C118.312 3.88801 119.816 3.24801 121.544 3.24801C123.272 3.24801 124.744 3.88801 125.96 5.16801C127.24 6.38401 127.88 7.85601 127.88 9.58401C127.88 11.312 127.24 12.816 125.96 14.096C124.744 15.312 123.272 15.92 121.544 15.92ZM189.814 99.44C188.342 99.44 187.126 98.96 186.166 98C185.27 97.104 184.822 95.952 184.822 94.544V68.624C182.646 71.312 179.958 73.456 176.758 75.056C173.558 76.592 170.07 77.36 166.294 77.36C161.622 77.36 157.43 76.208 153.718 73.904C150.006 71.536 147.062 68.368 144.886 64.4C142.774 60.368 141.718 55.824 141.718 50.768C141.718 45.712 142.87 41.168 145.174 37.136C147.542 33.104 150.71 29.936 154.678 27.632C158.71 25.264 163.222 24.08 168.214 24.08C173.206 24.08 177.686 25.264 181.654 27.632C185.622 29.936 188.758 33.104 191.062 37.136C193.43 41.168 194.614 45.712 194.614 50.768V94.544C194.614 95.952 194.166 97.104 193.27 98C192.374 98.96 191.222 99.44 189.814 99.44ZM168.214 68.72C171.478 68.72 174.39 67.952 176.95 66.416C179.51 64.816 181.526 62.672 182.998 59.984C184.47 57.232 185.206 54.16 185.206 50.768C185.206 47.312 184.47 44.24 182.998 41.552C181.526 38.8 179.51 36.656 176.95 35.12C174.39 33.52 171.478 32.72 168.214 32.72C165.014 32.72 162.102 33.52 159.478 35.12C156.918 36.656 154.87 38.8 153.334 41.552C151.862 44.24 151.126 47.312 151.126 50.768C151.126 54.16 151.862 57.232 153.334 59.984C154.87 62.672 156.918 64.816 159.478 66.416C162.102 67.952 165.014 68.72 168.214 68.72Z" fill="black"/>
<path d="M6.704 44.144H4.704V46.144H6.704V44.144ZM9.488 33.872L7.79198 32.812L7.78593 32.8218L9.488 33.872ZM17.168 26.576L16.1908 24.831H16.1908L17.168 26.576ZM36.272 25.808L35.1365 27.4544L35.1688 27.4767L35.2019 27.4976L36.272 25.808ZM38.48 30.224L36.544 29.7221L36.5333 29.7633L36.5244 29.805L38.48 30.224ZM37.328 32.336L38.645 33.8412L38.6509 33.836L38.6567 33.8308L37.328 32.336ZM35.504 33.2L35.1462 31.2323V31.2323L35.504 33.2ZM33.2 33.104L33.6497 31.1552L33.624 31.1493L33.5981 31.144L33.2 33.104ZM14.384 36.848L12.9698 35.4338L12.9578 35.4458L12.946 35.458L14.384 36.848ZM11.6 44.144V46.144H13.6V44.144H11.6ZM3.248 75.824L1.83379 77.2382L1.86206 77.2665L1.89144 77.2936L3.248 75.824ZM3.248 25.712L4.66222 27.1262H4.66222L3.248 25.712ZM10.352 25.712L8.88239 27.0686L8.93666 27.1274L8.99544 27.1816L10.352 25.712ZM10.352 75.728L8.93779 74.3138L8.90951 74.3421L8.88239 74.3715L10.352 75.728ZM6.704 44.144H8.704C8.704 40.6417 9.5456 37.5874 11.1901 34.9222L9.488 33.872L7.78593 32.8218C5.7184 36.1726 4.704 39.9663 4.704 44.144H6.704ZM9.488 33.872L11.184 34.932C12.9235 32.1488 15.2348 29.9509 18.1452 28.321L17.168 26.576L16.1908 24.831C12.7012 26.7852 9.89251 29.4512 7.79201 32.812L9.488 33.872ZM17.168 26.576L18.1452 28.321C21.0324 26.7042 24.2135 25.888 27.728 25.888V23.888V21.888C23.5625 21.888 19.7036 22.8638 16.1908 24.831L17.168 26.576ZM27.728 23.888V25.888C31.4172 25.888 33.776 26.5161 35.1365 27.4544L36.272 25.808L37.4075 24.1616C35.0561 22.5399 31.7188 21.888 27.728 21.888V23.888ZM36.272 25.808L35.2019 27.4976C35.9667 27.982 36.3205 28.4092 36.4751 28.7184C36.608 28.9841 36.6578 29.2832 36.544 29.7221L38.48 30.224L40.416 30.7259C40.7502 29.4368 40.656 28.136 40.0529 26.9296C39.4715 25.7668 38.4973 24.85 37.3421 24.1184L36.272 25.808ZM38.48 30.224L36.5244 29.805C36.4042 30.3657 36.2004 30.6624 35.9993 30.8412L37.328 32.336L38.6567 33.8308C39.6076 32.9856 40.1718 31.8743 40.4356 30.6431L38.48 30.224ZM37.328 32.336L36.011 30.8309C35.7854 31.0283 35.5138 31.1654 35.1462 31.2323L35.504 33.2L35.8618 35.1678C36.9022 34.9786 37.8466 34.5398 38.645 33.8412L37.328 32.336ZM35.504 33.2L35.1462 31.2323C34.7564 31.3031 34.267 31.2977 33.6497 31.1552L33.2 33.104L32.7503 35.0528C33.797 35.2943 34.8436 35.3529 35.8618 35.1678L35.504 33.2ZM33.2 33.104L33.5981 31.144C29.2974 30.2705 25.3312 30.182 21.7383 30.957L22.16 32.912L22.5817 34.8671C25.5168 34.234 28.9106 34.2736 32.8019 35.064L33.2 33.104ZM22.16 32.912L21.7383 30.957C18.185 31.7234 15.2183 33.1853 12.9698 35.4338L14.384 36.848L15.7982 38.2622C17.3897 36.6707 19.607 35.5087 22.5817 34.8671L22.16 32.912ZM14.384 36.848L12.946 35.458C10.6911 37.7906 9.6 40.7394 9.6 44.144H11.6H13.6C13.6 41.6607 14.3649 39.7454 15.822 38.2381L14.384 36.848ZM11.6 44.144V42.144H6.704V44.144V46.144H11.6V44.144ZM6.8 76.976V74.976C5.58491 74.976 4.95226 74.6754 4.60456 74.3544L3.248 75.824L1.89144 77.2936C3.20774 78.5087 4.94309 78.976 6.8 78.976V76.976ZM3.248 75.824L4.66221 74.4098C4.32414 74.0717 4 73.4414 4 72.176H2H9.53674e-07C9.53674e-07 74.1107 0.507864 75.9123 1.83379 77.2382L3.248 75.824ZM2 72.176H4V29.264H2H9.53674e-07V72.176H2ZM2 29.264H4C4 28.0898 4.30972 27.4787 4.66222 27.1262L3.248 25.712L1.83379 24.2978C0.522285 25.6093 9.53674e-07 27.3662 9.53674e-07 29.264H2ZM3.248 25.712L4.66222 27.1262C5.01471 26.7737 5.62581 26.464 6.8 26.464V24.464V22.464C4.90219 22.464 3.14529 22.9863 1.83379 24.2978L3.248 25.712ZM6.8 24.464V26.464C8.07798 26.464 8.62797 26.7929 8.88239 27.0686L10.352 25.712L11.8216 24.3554C10.54 22.9671 8.72203 22.464 6.8 22.464V24.464ZM10.352 25.712L8.99544 27.1816C9.27107 27.436 9.6 27.986 9.6 29.264H11.6H13.6C13.6 27.342 13.0969 25.524 11.7086 24.2424L10.352 25.712ZM11.6 29.264H9.6V72.176H11.6H13.6V29.264H11.6ZM11.6 72.176H9.6C9.6 73.3502 9.29029 73.9613 8.93779 74.3138L10.352 75.728L11.7662 77.1422C13.0777 75.8307 13.6 74.0738 13.6 72.176H11.6ZM10.352 75.728L8.88239 74.3715C8.62797 74.6471 8.07798 74.976 6.8 74.976V76.976V78.976C8.72203 78.976 10.54 78.4729 11.8216 77.0846L10.352 75.728ZM61.3975 73.904L60.3726 75.6214L60.3829 75.6276L60.3932 75.6336L61.3975 73.904ZM51.9895 64.304L50.253 65.2963V65.2963L51.9895 64.304ZM48.4375 50.672H46.4375V50.6847L46.4377 50.6973L48.4375 50.672ZM49.7815 3.34401L48.4169 1.8819L48.3917 1.90542L48.3673 1.92979L49.7815 3.34401ZM58.2295 32.816H56.2295V38.3401L59.7659 34.0964L58.2295 32.816ZM66.2935 26.48L67.1732 28.2761L67.1806 28.2725L67.1879 28.2689L66.2935 26.48ZM89.3335 27.632L88.2579 29.3181L88.2683 29.3248L88.2788 29.3313L89.3335 27.632ZM98.0695 37.136L96.2978 38.064L96.3067 38.0809L96.3159 38.0977L98.0695 37.136ZM97.7815 64.304L96.0569 63.2912L96.0509 63.3014L96.045 63.3117L97.7815 64.304ZM88.3735 73.904L89.3778 75.6336L89.3881 75.6276L89.3984 75.6214L88.3735 73.904ZM83.5735 66.416L84.6025 68.131L84.6181 68.1216L84.6335 68.112L83.5735 66.416ZM89.6215 59.888L87.8751 58.9133L87.8664 58.9289L87.8579 58.9447L89.6215 59.888ZM89.6215 41.456L87.8673 42.4166L87.876 42.4325L87.885 42.4483L89.6215 41.456ZM83.5735 35.12L82.5135 36.816L82.5289 36.8256L82.5445 36.835L83.5735 35.12ZM66.1015 35.12L67.1305 36.835L67.1366 36.8313L67.1427 36.8276L66.1015 35.12ZM60.0535 41.456L61.8077 42.4166V42.4166L60.0535 41.456ZM60.0535 59.888L58.2899 60.8313V60.8313L60.0535 59.888ZM66.1015 66.416L65.0415 68.112L65.0661 68.1274L65.0911 68.142L66.1015 66.416ZM74.8375 77.36V75.36C70.1663 75.36 66.0382 74.2859 62.4018 72.1744L61.3975 73.904L60.3932 75.6336C64.6928 78.1301 69.5247 79.36 74.8375 79.36V77.36ZM61.3975 73.904L62.4224 72.1866C58.7516 69.9959 55.8601 67.0464 53.726 63.3117L51.9895 64.304L50.253 65.2963C52.7269 69.6257 56.1074 73.0761 60.3726 75.6214L61.3975 73.904ZM51.9895 64.304L53.726 63.3117C51.6051 59.6002 50.4974 55.3942 50.4373 50.6467L48.4375 50.672L46.4377 50.6973C46.5056 56.0618 47.7659 60.9438 50.253 65.2963L51.9895 64.304ZM48.4375 50.672H50.4375V6.89601H48.4375H46.4375V50.672H48.4375ZM48.4375 6.89601H50.4375C50.4375 5.86172 50.7356 5.21832 51.1957 4.75822L49.7815 3.34401L48.3673 1.92979C47.0354 3.2617 46.4375 4.9863 46.4375 6.89601H48.4375ZM49.7815 3.34401L51.1461 4.80612C51.7075 4.28217 52.392 4.00002 53.3335 4.00002V2.00002V1.52588e-05C51.459 1.52588e-05 49.7755 0.613853 48.4169 1.8819L49.7815 3.34401ZM53.3335 2.00002V4.00002C54.3678 4.00002 55.0112 4.29813 55.4713 4.75822L56.8855 3.34401L58.2997 1.92979C56.9678 0.597893 55.2432 1.52588e-05 53.3335 1.52588e-05V2.00002ZM56.8855 3.34401L55.4713 4.75822C55.9314 5.21832 56.2295 5.86172 56.2295 6.89601H58.2295H60.2295C60.2295 4.9863 59.6316 3.2617 58.2997 1.92979L56.8855 3.34401ZM58.2295 6.89601H56.2295V32.816H58.2295H60.2295V6.89601H58.2295ZM58.2295 32.816L59.7659 34.0964C61.8261 31.6241 64.2905 29.6881 67.1732 28.2761L66.2935 26.48L65.4138 24.6839C62.0245 26.3439 59.1129 28.6319 56.6931 31.5356L58.2295 32.816ZM66.2935 26.48L67.1879 28.2689C70.0948 26.8154 73.2743 26.08 76.7575 26.08V24.08V22.08C72.6887 22.08 68.8922 22.9446 65.3991 24.6912L66.2935 26.48ZM76.7575 24.08V26.08C81.0728 26.08 84.8871 27.1678 88.2579 29.3181L89.3335 27.632L90.4091 25.9459C86.3559 23.3602 81.7862 22.08 76.7575 22.08V24.08ZM89.3335 27.632L88.2788 29.3313C91.6742 31.4388 94.3444 34.3347 96.2978 38.064L98.0695 37.136L99.8412 36.208C97.5706 31.8733 94.4168 28.4332 90.3882 25.9327L89.3335 27.632ZM98.0695 37.136L96.3159 38.0977C98.312 41.7376 99.3335 45.9121 99.3335 50.672H101.334H103.334C103.334 45.32 102.179 40.4704 99.8231 36.1743L98.0695 37.136ZM101.334 50.672H99.3335C99.3335 55.4018 98.23 59.5911 96.0569 63.2912L97.7815 64.304L99.5061 65.3169C102.069 60.953 103.334 56.0542 103.334 50.672H101.334ZM97.7815 64.304L96.045 63.3117C93.9109 67.0464 91.0194 69.9959 87.3486 72.1866L88.3735 73.904L89.3984 75.6214C93.6636 73.0761 97.0441 69.6257 99.518 65.2963L97.7815 64.304ZM88.3735 73.904L87.3692 72.1744C83.7367 74.2836 79.5777 75.36 74.8375 75.36V77.36V79.36C80.2093 79.36 85.0743 78.1324 89.3778 75.6336L88.3735 73.904ZM74.8375 68.72V70.72C78.4291 70.72 81.703 69.8707 84.6025 68.131L83.5735 66.416L82.5445 64.701C80.324 66.0333 77.7739 66.72 74.8375 66.72V68.72ZM83.5735 66.416L84.6335 68.112C87.5 66.3204 89.7541 63.8805 91.3851 60.8313L89.6215 59.888L87.8579 58.9447C86.5449 61.3995 84.767 63.3116 82.5135 64.72L83.5735 66.416ZM89.6215 59.888L91.3679 60.8627C93.0828 57.7902 93.9255 54.3784 93.9255 50.672H91.9255H89.9255C89.9255 53.7496 89.2322 56.4818 87.8751 58.9133L89.6215 59.888ZM91.9255 50.672H93.9255C93.9255 46.9093 93.0861 43.4879 91.358 40.4637L89.6215 41.456L87.885 42.4483C89.2289 44.8001 89.9255 47.5227 89.9255 50.672H91.9255ZM89.6215 41.456L91.3757 40.4954C89.7379 37.5047 87.4752 35.1287 84.6025 33.405L83.5735 35.12L82.5445 36.835C84.7918 38.1833 86.5611 40.0313 87.8673 42.4166L89.6215 41.456ZM83.5735 35.12L84.6335 33.424C81.7298 31.6092 78.4447 30.72 74.8375 30.72V32.72V34.72C77.7583 34.72 80.2972 35.4308 82.5135 36.816L83.5735 35.12ZM74.8375 32.72V30.72C71.286 30.72 68.0112 31.6131 65.0603 33.4124L66.1015 35.12L67.1427 36.8276C69.4398 35.4269 71.989 34.72 74.8375 34.72V32.72ZM66.1015 35.12L65.0725 33.405C62.1998 35.1287 59.9371 37.5047 58.2993 40.4954L60.0535 41.456L61.8077 42.4166C63.1139 40.0313 64.8832 38.1833 67.1305 36.835L66.1015 35.12ZM60.0535 41.456L58.2993 40.4954C56.6463 43.5138 55.8455 46.9238 55.8455 50.672H57.8455H59.8455C59.8455 47.5082 60.5167 44.7742 61.8077 42.4166L60.0535 41.456ZM57.8455 50.672H55.8455C55.8455 54.3638 56.6495 57.7644 58.2899 60.8313L60.0535 59.888L61.8171 58.9447C60.5135 56.5077 59.8455 53.7642 59.8455 50.672H57.8455ZM60.0535 59.888L58.2899 60.8313C59.9209 63.8805 62.175 66.3204 65.0415 68.112L66.1015 66.416L67.1615 64.72C64.908 63.3116 63.1301 61.3995 61.8171 58.9447L60.0535 59.888ZM66.1015 66.416L65.0911 68.142C68.0379 69.867 71.3018 70.72 74.8375 70.72V68.72V66.72C71.9733 66.72 69.4131 66.037 67.1119 64.69L66.1015 66.416ZM117.992 75.632L116.529 76.9967L116.576 77.0471L116.627 77.0941L117.992 75.632ZM117.992 25.808L116.627 24.3459L116.602 24.3694L116.577 24.3938L117.992 25.808ZM125.096 75.632L126.51 77.0462L126.534 77.0219L126.558 76.9967L125.096 75.632ZM117.032 14.096L115.582 15.4735L115.617 15.5107L115.654 15.546L117.032 14.096ZM117.032 5.16801L115.617 3.7538V3.7538L117.032 5.16801ZM125.96 5.16801L124.51 6.54551L124.545 6.58269L124.582 6.61801L125.96 5.16801ZM125.96 14.096L127.374 15.5102V15.5102L125.96 14.096ZM121.544 76.976V74.976C120.602 74.976 119.918 74.6939 119.356 74.1699L117.992 75.632L116.627 77.0941C117.985 78.3622 119.669 78.976 121.544 78.976V76.976ZM117.992 75.632L119.454 74.2674C118.93 73.706 118.647 73.0215 118.647 72.08H116.647H114.647C114.647 73.9545 115.261 75.638 116.529 76.9967L117.992 75.632ZM116.647 72.08H118.647V29.36H116.647H114.647V72.08H116.647ZM116.647 29.36H118.647C118.647 28.3257 118.946 27.6823 119.406 27.2222L117.992 25.808L116.577 24.3938C115.245 25.7257 114.647 27.4503 114.647 29.36H116.647ZM117.992 25.808L119.356 27.2701C119.918 26.7462 120.602 26.464 121.544 26.464V24.464V22.464C119.669 22.464 117.985 23.0779 116.627 24.3459L117.992 25.808ZM121.544 24.464V26.464C122.578 26.464 123.221 26.7621 123.681 27.2222L125.096 25.808L126.51 24.3938C125.178 23.0619 123.453 22.464 121.544 22.464V24.464ZM125.096 25.808L123.681 27.2222C124.141 27.6823 124.439 28.3257 124.439 29.36H126.439H128.439C128.439 27.4503 127.842 25.7257 126.51 24.3938L125.096 25.808ZM126.439 29.36H124.439V72.08H126.439H128.439V29.36H126.439ZM126.439 72.08H124.439C124.439 73.0215 124.157 73.706 123.633 74.2674L125.096 75.632L126.558 76.9967C127.826 75.638 128.439 73.9545 128.439 72.08H126.439ZM125.096 75.632L123.681 74.2178C123.221 74.6779 122.578 74.976 121.544 74.976V76.976V78.976C123.453 78.976 125.178 78.3781 126.51 77.0462L125.096 75.632ZM121.544 15.92V13.92C120.34 13.92 119.326 13.5174 118.409 12.646L117.032 14.096L115.654 15.546C117.297 17.1066 119.291 17.92 121.544 17.92V15.92ZM117.032 14.096L118.481 12.7185C117.61 11.8012 117.208 10.7871 117.208 9.58401H115.208H113.208C113.208 11.8369 114.021 13.8308 115.582 15.4735L117.032 14.096ZM115.208 9.58401H117.208C117.208 8.38355 117.607 7.42111 118.446 6.58222L117.032 5.16801L115.617 3.7538C114.024 5.34691 113.208 7.32847 113.208 9.58401H115.208ZM117.032 5.16801L118.446 6.58222C119.371 5.65743 120.373 5.24802 121.544 5.24802V3.24802V1.24802C119.258 1.24802 117.252 2.11859 115.617 3.7538L117.032 5.16801ZM121.544 3.24802V5.24802C122.71 5.24802 123.662 5.65322 124.51 6.54551L125.96 5.16801L127.41 3.79051C125.825 2.1228 123.833 1.24802 121.544 1.24802V3.24802ZM125.96 5.16801L124.582 6.61801C125.474 7.46568 125.88 8.41754 125.88 9.58401H127.88H129.88C129.88 7.29448 129.005 5.30234 127.337 3.71801L125.96 5.16801ZM127.88 9.58401H125.88C125.88 10.7541 125.47 11.757 124.545 12.6818L125.96 14.096L127.374 15.5102C129.009 13.875 129.88 11.8699 129.88 9.58401H127.88ZM125.96 14.096L124.545 12.6818C123.706 13.5207 122.744 13.92 121.544 13.92V15.92V17.92C123.799 17.92 125.781 17.1033 127.374 15.5102L125.96 14.096ZM186.166 98L187.58 96.5858V96.5858L186.166 98ZM184.822 68.624H186.822V62.9748L183.268 67.3656L184.822 68.624ZM176.758 75.056L177.624 76.8591L177.638 76.8521L177.653 76.8449L176.758 75.056ZM153.718 73.904L152.643 75.5901L152.653 75.5968L152.664 75.6033L153.718 73.904ZM144.886 64.4L143.115 65.328L143.123 65.3449L143.133 65.3617L144.886 64.4ZM145.174 37.136L143.45 36.1232L143.444 36.1334L143.438 36.1437L145.174 37.136ZM154.678 27.632L155.683 29.3616L155.691 29.3566L154.678 27.632ZM181.654 27.632L180.629 29.3494L180.64 29.3556L180.65 29.3616L181.654 27.632ZM191.062 37.136L189.326 38.1283L189.332 38.1386L189.338 38.1489L191.062 37.136ZM193.27 98L191.856 96.5858L191.832 96.6102L191.808 96.6354L193.27 98ZM176.95 66.416L177.979 68.131L177.995 68.1216L178.01 68.112L176.95 66.416ZM182.998 59.984L184.752 60.9446L184.757 60.936L184.762 60.9273L182.998 59.984ZM182.998 41.552L181.235 42.4953L181.239 42.504L181.244 42.5126L182.998 41.552ZM176.95 35.12L175.89 36.816L175.906 36.8256L175.921 36.835L176.95 35.12ZM159.478 35.12L160.507 36.835L160.513 36.8313L160.519 36.8276L159.478 35.12ZM153.334 41.552L151.588 40.5773L151.584 40.5843L151.58 40.5914L153.334 41.552ZM153.334 59.984L151.571 60.9273L151.584 60.952L151.598 60.9763L153.334 59.984ZM159.478 66.416L158.418 68.112L158.443 68.1274L158.468 68.142L159.478 66.416ZM189.814 99.44V97.44C188.823 97.44 188.132 97.1373 187.58 96.5858L186.166 98L184.752 99.4142C186.121 100.783 187.861 101.44 189.814 101.44V99.44ZM186.166 98L187.58 96.5858C187.103 96.1082 186.822 95.4862 186.822 94.544H184.822H182.822C182.822 96.4178 183.438 98.0998 184.752 99.4142L186.166 98ZM184.822 94.544H186.822V68.624H184.822H182.822V94.544H184.822ZM184.822 68.624L183.268 67.3656C181.278 69.824 178.818 71.7903 175.864 73.2672L176.758 75.056L177.653 76.8449C181.099 75.1217 184.015 72.8 186.377 69.8824L184.822 68.624ZM176.758 75.056L175.893 73.253C172.98 74.6511 169.79 75.36 166.294 75.36V77.36V79.36C170.35 79.36 174.137 78.5329 177.624 76.8591L176.758 75.056ZM166.294 77.36V75.36C161.968 75.36 158.146 74.2984 154.773 72.2047L153.718 73.904L152.664 75.6033C156.714 78.1176 161.276 79.36 166.294 79.36V77.36ZM153.718 73.904L154.794 72.2179C151.373 70.0358 148.659 67.1203 146.64 63.4383L144.886 64.4L143.133 65.3617C145.465 69.6157 148.639 73.0363 152.643 75.5901L153.718 73.904ZM144.886 64.4L146.658 63.472C144.712 59.7569 143.718 55.5372 143.718 50.768H141.718H139.718C139.718 56.1109 140.837 60.9791 143.115 65.328L144.886 64.4ZM141.718 50.768H143.718C143.718 46.0283 144.795 41.8316 146.911 38.1283L145.174 37.136L143.438 36.1437C140.946 40.5044 139.718 45.3958 139.718 50.768H141.718ZM145.174 37.136L146.899 38.1489C149.096 34.4079 152.018 31.4893 155.683 29.3616L154.678 27.632L153.674 25.9024C149.402 28.3828 145.989 31.8002 143.45 36.1232L145.174 37.136ZM154.678 27.632L155.691 29.3566C159.395 27.1812 163.553 26.08 168.214 26.08V24.08V22.08C162.891 22.08 158.025 23.3469 153.665 25.9074L154.678 27.632ZM168.214 24.08V26.08C172.875 26.08 176.996 27.1812 180.629 29.3494L181.654 27.632L182.679 25.9146C178.376 23.3469 173.537 22.08 168.214 22.08V24.08ZM181.654 27.632L180.65 29.3616C184.309 31.4864 187.194 34.3984 189.326 38.1283L191.062 37.136L192.799 36.1437C190.322 31.8096 186.935 28.3856 182.659 25.9024L181.654 27.632ZM191.062 37.136L189.338 38.1489C191.511 41.849 192.614 46.0382 192.614 50.768H194.614H196.614C196.614 45.3858 195.35 40.487 192.787 36.1232L191.062 37.136ZM194.614 50.768H192.614V94.544H194.614H196.614V50.768H194.614ZM194.614 94.544H192.614C192.614 95.4862 192.334 96.1082 191.856 96.5858L193.27 98L194.684 99.4142C195.999 98.0998 196.614 96.4178 196.614 94.544H194.614ZM193.27 98L191.808 96.6354C191.32 97.1585 190.713 97.44 189.814 97.44V99.44V101.44C191.732 101.44 193.429 100.762 194.732 99.3647L193.27 98ZM168.214 68.72V70.72C171.806 70.72 175.08 69.8707 177.979 68.131L176.95 66.416L175.921 64.701C173.701 66.0333 171.151 66.72 168.214 66.72V68.72ZM176.95 66.416L178.01 68.112C180.865 66.3275 183.118 63.9284 184.752 60.9446L182.998 59.984L181.244 59.0234C179.934 61.4156 178.155 63.3045 175.89 64.72L176.95 66.416ZM182.998 59.984L184.762 60.9273C186.402 57.8604 187.206 54.4598 187.206 50.768H185.206H183.206C183.206 53.8602 182.538 56.6037 181.235 59.0407L182.998 59.984ZM185.206 50.768H187.206C187.206 47.0198 186.405 43.6098 184.752 40.5914L182.998 41.552L181.244 42.5126C182.535 44.8702 183.206 47.6042 183.206 50.768H185.206ZM182.998 41.552L184.762 40.6087C183.127 37.5529 180.864 35.1357 177.979 33.405L176.95 35.12L175.921 36.835C178.157 38.1763 179.925 40.0471 181.235 42.4953L182.998 41.552ZM176.95 35.12L178.01 33.424C175.107 31.6092 171.821 30.72 168.214 30.72V32.72V34.72C171.135 34.72 173.674 35.4308 175.89 36.816L176.95 35.12ZM168.214 32.72V30.72C164.663 30.72 161.388 31.6131 158.437 33.4124L159.478 35.12L160.519 36.8276C162.817 35.4269 165.366 34.72 168.214 34.72V32.72ZM159.478 35.12L158.449 33.405C155.573 35.131 153.284 37.5377 151.588 40.5773L153.334 41.552L155.081 42.5267C156.456 40.0623 158.264 38.1811 160.507 36.835L159.478 35.12ZM153.334 41.552L151.58 40.5914C149.927 43.6098 149.126 47.0198 149.126 50.768H151.126H153.126C153.126 47.6042 153.797 44.8702 155.088 42.5126L153.334 41.552ZM151.126 50.768H149.126C149.126 54.4598 149.93 57.8604 151.571 60.9273L153.334 59.984L155.098 59.0407C153.794 56.6037 153.126 53.8602 153.126 50.768H151.126ZM153.334 59.984L151.598 60.9763C153.293 63.9435 155.571 66.3323 158.418 68.112L159.478 66.416L160.538 64.72C158.266 63.2997 156.447 61.4005 155.071 58.9917L153.334 59.984ZM159.478 66.416L158.468 68.142C161.415 69.867 164.679 70.72 168.214 70.72V68.72V66.72C165.35 66.72 162.79 66.037 160.489 64.69L159.478 66.416Z" fill="black" mask="url(#path-1-outside-1_2_22)"/>
</svg>
